<svg width="24" height="24" viewBox="0 0 24 24" fill="none" xmlns="http://www.w3.org/2000/svg">
<path fill-rule="evenodd" clip-rule="evenodd" d="M5 2H19C19.2652 2 19.5196 2.10536 19.7071 2.29289C19.8946 2.48043 20 2.73478 20 3V21C20 21.2652 19.8946 21.5196 19.7071 21.7071C19.5196 21.8946 19.2652 22 19 22H5C4.73478 22 4.48043 21.8946 4.29289 21.7071C4.10536 21.5196 4 21.2652 4 21V3C4 2.73478 4.10536 2.48043 4.29289 2.29289C4.48043 2.10536 4.73478 2 5 2ZM16 4H18V11H14.831C14.6248 10.4138 14.2417 9.90602 13.7346 9.54682C13.2275 9.18763 12.6214 8.99471 12 8.99471C11.3786 8.99471 10.7725 9.18763 10.2654 9.54682C9.75827 9.90602 9.37518 10.4138 9.169 11H6V4H8V6.5C8 6.76522 8.10536 7.01957 8.29289 7.20711C8.48043 7.39464 8.73478 7.5 9 7.5H15C15.2652 7.5 15.5196 7.39464 15.7071 7.20711C15.8946 7.01957 16 6.76522 16 6.5V4ZM9.172 13H6V20H8V17.5C8 17.2348 8.10536 16.9804 8.29289 16.7929C8.48043 16.6054 8.73478 16.5 9 16.5H15C15.2652 16.5 15.5196 16.6054 15.7071 16.7929C15.8946 16.9804 16 17.2348 16 17.5V20H18V13H14.828C14.6206 13.5842 14.2373 14.0897 13.731 14.4473C13.2246 14.8048 12.6199 14.9968 12 14.9968C11.3801 14.9968 10.7754 14.8048 10.269 14.4473C9.76266 14.0897 9.37943 13.5842 9.172 13ZM14 18.5V20H10V18.5H14ZM10 4V5.5H14V4H10ZM12 12.995C11.7348 12.995 11.4804 12.8896 11.2929 12.7021C11.1054 12.5146 11 12.2602 11 11.995C11 11.7298 11.1054 11.4754 11.2929 11.2879C11.4804 11.1004 11.7348 10.995 12 10.995C12.2652 10.995 12.5196 11.1004 12.7071 11.2879C12.8946 11.4754 13 11.7298 13 11.995C13 12.2602 12.8946 12.5146 12.7071 12.7021C12.5196 12.8896 12.2652 12.995 12 12.995Z" fill="white"/>
</svg>
