<svg width="24" height="24" viewBox="0 0 24 24" fill="none" xmlns="http://www.w3.org/2000/svg">
<path d="M15.8282 1.68564L17.6572 3.51464C17.6572 3.51464 16.8792 5.56464 17.6572 6.34264C18.4352 7.12064 20.4852 6.34264 20.4852 6.34264L22.3142 8.17164C23.0912 8.94864 23.0912 10.2216 22.3142 10.9996L19.2272 14.0856L17.8132 12.6716L20.9002 9.58564L20.1032 8.78964C19.4257 8.96963 18.7128 8.96897 18.0355 8.78773C17.3583 8.60649 16.7404 8.25099 16.2432 7.75664C15.7489 7.25953 15.3934 6.64159 15.2122 5.96435C15.0309 5.28712 15.0303 4.57421 15.2102 3.89664L14.4142 3.10064L11.3282 6.18664L9.91425 4.77264L13.0002 1.68564C13.3761 1.31216 13.8844 1.10254 14.4142 1.10254C14.9441 1.10254 15.4524 1.31216 15.8282 1.68564ZM8.85025 5.83564L1.68725 12.9996C1.31464 13.3749 1.10612 13.8827 1.10743 14.4116C1.10874 14.9404 1.31978 15.4472 1.69425 15.8206L3.52325 17.6496C3.89855 17.277 4.40634 17.0685 4.9352 17.0698C5.46405 17.0711 5.9708 17.2822 6.34425 17.6566C6.71919 18.0317 6.92982 18.5403 6.92982 19.0706C6.92982 19.601 6.71919 20.1096 6.34425 20.4846L8.17325 22.3136C8.95025 23.0906 10.2232 23.0906 11.0012 22.3136L18.1652 15.1486L16.7512 13.7346L9.58625 20.8996L8.79025 20.1036C8.97042 19.4259 8.96986 18.7128 8.78862 18.0354C8.60737 17.358 8.25177 16.7398 7.75725 16.2426C7.26273 15.7465 6.64636 15.3892 5.97004 15.2066C5.29372 15.024 4.58126 15.0227 3.90425 15.2026L3.10025 14.4136L10.2652 7.24964L8.85025 5.83564Z" fill="white"/>
</svg>
