<svg width="296" height="179" viewBox="0 0 296 179" fill="none" xmlns="http://www.w3.org/2000/svg">
<path d="M178.987 23.2464L169.475 20.7813C167.527 20.2766 166.874 20.4597 166.308 22.6455L165.881 24.2932L176.89 27.1454L175.404 32.8799L164.396 30.0277L161.823 39.9963L158.192 39.0551C157.477 38.8704 156.926 38.4776 156.599 37.9199C156.271 37.3627 156.195 36.6899 156.381 35.9751L160.374 20.5617C161.678 15.529 165.349 13.5223 170.71 14.9115L180.49 17.4457L178.987 23.2464Z" fill="white"/>
<path d="M122.741 15.4988L138.612 12.2773L139.806 18.1601L127.607 20.6366L128.454 24.8109L139.618 22.545L140.798 28.3607L129.635 30.6266L129.975 32.2998C130.425 34.5172 131.067 34.7363 133.042 34.3351L142.692 32.3768L143.886 38.2596L133.966 40.2726C133.056 40.4573 132.198 40.5499 131.394 40.551C129.815 40.5525 128.446 40.1998 127.304 39.4953C125.576 38.4292 124.439 36.6041 123.925 34.0693L120.762 18.4837C120.614 17.759 120.726 17.0904 121.085 16.5498C121.443 16.0098 122.016 15.6461 122.741 15.4988Z" fill="white"/>
<path d="M204.859 30.9403C206.383 32.113 206.165 33.4548 205.868 34.3632L198.369 60.1703L193.196 55.4362L194.285 51.6777L189.599 48.1762L193.373 45.4728L195.558 47.1148L198.04 38.7445L183.639 48.0586L177.734 44.7179L200.325 30.098C201.195 29.534 202.387 29.0361 203.894 30.1968L204.859 30.9403Z" fill="white"/>
<path d="M148.444 6.01723C124.314 6.01723 101.208 14.4916 83.3808 29.8795C81.5286 31.4788 79.7565 33.1411 78.0614 34.858L74.7035 30.7114C76.3705 29.0434 78.1067 27.4253 79.9147 25.8644C98.7041 9.64464 123.042 0.711914 148.444 0.711914C173.846 0.711914 198.185 9.64464 216.974 25.8644C218.782 27.4253 220.518 29.0439 222.185 30.7119L218.827 34.8586C217.132 33.1411 215.36 31.4788 213.508 29.8795C195.681 14.4916 172.574 6.01723 148.444 6.01723Z" fill="white"/>
<path d="M190.788 69.4386C181.474 57.8493 165.633 49.8807 148.444 49.8807C131.256 49.8807 115.414 57.8493 106.102 69.4386L102.849 65.4215C113.103 53.161 129.914 44.8703 148.445 44.8703C166.974 44.8703 183.785 53.161 194.04 65.4215L190.788 69.4386Z" fill="white"/>
<path d="M101.214 48.8C102.466 48.9483 103.883 48.4645 105.102 47.4738C106.326 46.4791 107.091 45.1898 107.201 43.937C107.348 42.3459 106.911 41.2689 105.327 39.3273L96.2437 28.149L101.143 24.1662L111.038 36.3393C113.135 38.9251 113.997 41.5535 113.674 44.3761C113.321 47.4915 111.814 50.0966 109.067 52.3406C106.601 54.3353 104.057 55.301 101.318 55.277C100.99 55.2744 100.66 55.2573 100.326 55.2266C97.4992 54.9669 95.1017 53.5871 92.9982 51.0076L83.1014 38.832L88.0019 34.8487L97.0892 46.0217C98.6661 47.9697 99.6297 48.6185 101.214 48.8Z" fill="white"/>
<path fill-rule="evenodd" clip-rule="evenodd" d="M142.143 134.029H128.352L117.627 114.722H111.036V134.029H98.7775V80.3978H120.077C130.955 80.3978 139.461 87.0631 139.461 97.5598C139.461 104.608 135.63 109.435 130.19 112.5L142.143 134.029ZM120.23 91.4309H111.036V103.689H120.23C125.288 103.689 127.203 101.084 127.203 97.5598C127.203 94.036 125.288 91.4309 120.23 91.4309Z" fill="white"/>
<path d="M108.11 165.433H94.7646V171.566H109.634V178.016H87.5987V146.668H109.274V153.117H94.7646V158.983H108.11V165.433Z" fill="white"/>
<path fill-rule="evenodd" clip-rule="evenodd" d="M112.949 178.016L125.668 146.668H133.282L146 178.016H137.893L135.61 172.06H123.338L121.055 178.016H112.949ZM129.476 155.984L125.802 165.611H133.148L129.476 155.984Z" fill="white"/>
<path fill-rule="evenodd" clip-rule="evenodd" d="M261.142 80.3978H274.166L295.926 134.029H282.059L278.152 123.839H257.159L253.251 134.029H239.383L261.142 80.3978ZM267.654 96.3346L261.372 112.806H273.938L267.654 96.3346Z" fill="white"/>
<path d="M169.787 166.789H160.106V161.187H176.464V171.674C173.013 175.887 168.801 178.575 161.988 178.575C153.205 178.575 145.945 172.39 145.945 162.353C145.945 152.314 153.295 146.129 161.899 146.129C169.921 146.129 174.493 150.073 176.107 155.943L169.249 157.96C168.219 154.464 165.709 152.582 161.81 152.582C157.553 152.582 153.115 155.765 153.115 162.353C153.115 168.94 157.194 172.121 162.616 172.121C165.709 172.121 168.219 170.777 169.787 169.029V166.789Z" fill="white"/>
<path d="M193.048 172.108C196.988 172.108 199.139 169.511 199.139 165.301V146.671H206.305V165.703C206.305 174.392 200.259 178.556 193.048 178.556C185.836 178.556 179.792 174.437 179.792 165.703V146.671H186.958V165.301C186.958 169.511 189.106 172.108 193.048 172.108Z" fill="white"/>
<path d="M230.864 165.433H217.52V171.567H232.387V178.016H210.354V146.668H232.029V153.118H217.52V158.984H230.864V165.433Z" fill="white"/>
<path d="M62.1933 146.668H69.3592V171.566H84.2268V178.016H62.1933V146.668Z" fill="white"/>
<path d="M78.7695 80.3978H91.0268V112.96C91.0268 127.823 80.6847 134.948 68.3498 134.948C56.0139 134.948 45.6718 127.9 45.6718 112.96V80.3978H57.9296V112.269C57.9296 119.472 61.608 123.916 68.3498 123.916C75.0916 123.916 78.7695 119.472 78.7695 112.269V80.3978Z" fill="white"/>
<path fill-rule="evenodd" clip-rule="evenodd" d="M216.687 134.029H204.428V80.3978H225.419C235.994 80.3978 244.652 86.5267 244.652 98.1722C244.652 109.819 235.994 115.948 225.419 115.948H216.687V134.029ZM224.809 91.4309H216.687V104.915H224.809C230.248 104.915 232.394 102.081 232.394 98.1722C232.394 94.2659 230.248 91.4309 224.809 91.4309Z" fill="white"/>
<path fill-rule="evenodd" clip-rule="evenodd" d="M197.143 107.194C197.143 124.573 186.959 135.215 171.188 135.215C155.416 135.215 145.235 124.573 145.235 107.194C145.235 89.8139 155.416 79.172 171.188 79.172C186.959 79.172 197.143 89.8139 197.143 107.194ZM184.893 107.194C184.893 95.7097 178.845 90.1978 171.188 90.1978C163.531 90.1978 157.484 95.7097 157.484 107.194C157.484 118.679 163.531 124.192 171.188 124.192C178.845 124.192 184.893 118.679 184.893 107.194Z" fill="white"/>
<path d="M36.0502 112.5H13.2202V122.996H38.6563V134.029H0.962891V80.3978H38.0429V91.4309H13.2202V101.467H36.0502V112.5Z" fill="white"/>
<path d="M252.738 154.244L255.589 146.771H257.339V156.121H255.694V150.514L253.55 156.121H251.926L249.782 150.514V156.121H248.137V146.771H249.888L252.738 154.244Z" fill="white"/>
<path d="M242.518 148.252H239.642V146.778H247.016V148.252H244.14V156.121H242.518V148.252Z" fill="white"/>
</svg>
