<svg xmlns="http://www.w3.org/2000/svg" width="37" height="40" viewBox="0 0 37 40">
    <g fill="none" fill-rule="evenodd">
        <path d="M-1 0h40v40H-1z"/>
        <path fill="#FFF" fill-rule="nonzero" d="M26.89 3.926c-2.466 4.826-6.328 15.662-4.724 25.547C17.696 14.402 20.473 1.77 20.781.472h.002a.08.08 0 0 1 .08-.068c.014 0 .026.006.038.012l.001-.003 5.959 3.41-.002.001a.079.079 0 0 1 .038.066.066.066 0 0 1-.009.034l.002.002zM19.77 39.48c-.036-.002-.064-.03-.073-.065-.165-1.967-.897-5.721-1.733-9.14 1.651 3.18 4.111 6.694 5.71 8.401l-.003.002c.005.01.008.02.008.035 0 .031-.02.06-.049.073v.002c-1.238.361-2.53.598-3.86.693v-.001z"/>
        <path fill="#FFF" fill-rule="nonzero" d="M25.045 38.327C14.881 26.766 11.058 10.623 9.57 3.807h.001c-.001-.006-.004-.012-.004-.02a.08.08 0 0 1 .057-.075c.787-.318 8.165-3.281 9.23-3.708v.002A.057.057 0 0 1 18.878 0a.08.08 0 0 1 .08.082v.003h.003c-.94 5.81-2.26 24.803 6.084 38.242zm-11.396.486c.814-2.986 1.802-9.276.9-15.318 2.774 5.956 3.529 12.686 3.726 15.954a.081.081 0 0 1-.077.076 18.469 18.469 0 0 1-4.5-.62.085.085 0 0 1-.052-.075c0-.006.003-.011.004-.017h-.001zM11.49 38.163a.087.087 0 0 1-.024-.004C4.742 35.41 0 28.81 0 21.1 0 14.918 3.05 9.45 7.72 6.11a.081.081 0 0 1 .047-.016.08.08 0 0 1 .077.059c.028.135.079.35.103.442l-.005.002.003.015a.076.076 0 0 1-.023.057v.001C3.924 9.757 1.6 15.674 1.6 21.1c0 6.944 3.992 13.897 10.008 16.474l-.001.003a.077.077 0 0 1 .058.075c0 .006-.002.01-.004.014l.004.002c-.026.11-.077.338-.103.455l-.004-.002a.08.08 0 0 1-.069.042h.001zM28.54 5.697c5.009 3.294 8.318 8.96 8.318 15.403 0 7.038-3.95 13.148-9.753 16.25a.074.074 0 0 1-.037.01.08.08 0 0 1-.063-.033h-.002l-.227-.393h.001a.086.086 0 0 1-.007-.033c0-.023.01-.043.026-.059l-.001-.002c5.334-2.832 8.465-9.294 8.465-15.74 0-5.788-2.528-11.825-6.987-14.86v-.005a.076.076 0 0 1-.03-.06.07.07 0 0 1 .009-.037l.187-.405a.083.083 0 0 1 .068-.04.07.07 0 0 1 .032.006l.001-.002z"/>
    </g>
</svg>
