<svg xmlns="http://www.w3.org/2000/svg" xmlns:xlink="http://www.w3.org/1999/xlink" width="70" height="38" viewBox="0 0 70 38">
    <defs>
        <path id="a" d="M0 0v10.78h37.976V0H0z"/>
        <path id="c" d="M0 .039V11.94h69.474V.04z"/>
    </defs>
    <g fill="none" fill-rule="evenodd">
        <mask id="b" fill="#fff">
            <use xlink:href="#a"/>
        </mask>
        <path fill="#FEFEFE" d="M31.564 7.366h1.972l-.994-2.195-.978 2.195zm2.901 2.012h-3.798l-.51 1.17a.137.137 0 0 1-.126.08h-2.545c-.1 0-.167-.1-.123-.187L32.574.08c.048-.108.144-.108.192 0l5.196 10.36c.043.087-.023.187-.124.187h-2.706a.138.138 0 0 1-.126-.078l-.54-1.172zM20.64.263a.134.134 0 0 0-.138.13v10.103c0 .073.062.132.138.132h2.641a.134.134 0 0 0 .138-.132V7.031h3.821a.134.134 0 0 0 .138-.13V4.828a.134.134 0 0 0-.138-.13h-3.821V2.594h4.55c.053 0 .101-.029.124-.074L29.127.449c.043-.086-.023-.186-.124-.186H20.64zm-9.28 0a.134.134 0 0 0-.138.13v10.103c0 .073.062.132.138.132h7.593a.134.134 0 0 0 .138-.132v-2.07a.134.134 0 0 0-.138-.13h-4.814V6.512h3.805c.076 0 .137-.059.137-.13V4.432a.134.134 0 0 0-.137-.13h-3.805V2.594h4.59a.134.134 0 0 0 .138-.13V.392a.134.134 0 0 0-.137-.13h-7.37zM0 6.62c0 2.79 2.004 4.16 4.728 4.16 2.725 0 4.728-1.37 4.728-4.16V.394a.134.134 0 0 0-.138-.13H6.677a.135.135 0 0 0-.138.13v6.194c0 1.183-.586 1.855-1.84 1.844-.994-.008-1.782-.806-1.782-1.752V.394a.135.135 0 0 0-.138-.13H.138A.134.134 0 0 0 0 .393v6.225z" mask="url(#b)"/>
        <g transform="translate(0 13.029)">
            <mask id="d" fill="#fff">
                <use xlink:href="#c"/>
            </mask>
            <path fill="#FEFEFE" d="M15.59 8.085h2.033l-1.025-2.397-1.009 2.397zm2.992 2.198h-3.918l-.526 1.277a.142.142 0 0 1-.131.089h-2.622a.143.143 0 0 1-.129-.205L16.631.126c.05-.116.149-.116.198 0l5.358 11.318a.143.143 0 0 1-.128.205h-2.79a.143.143 0 0 1-.13-.086l-.557-1.28zm-8.696 1.566c.182.15.231.1.231-.034V.475A.142.142 0 0 0 9.975.33H7.432a.143.143 0 0 0-.142.143v5.53L.231.143C.05-.007 0 .076 0 .176v11.33c0 .078.063.143.142.143h2.543a.143.143 0 0 0 .142-.144V6.004l7.059 5.845zm49.414 0c.182.15.232.1.232-.034V.47a.142.142 0 0 0-.142-.143h-2.543a.143.143 0 0 0-.142.143v5.535L49.646.143c-.181-.15-.231-.067-.231.033v11.33c0 .078.063.143.142.143H52.1a.143.143 0 0 0 .142-.144V6.004l7.058 5.845zm1.535-1.987a.143.143 0 0 0-.006.196c.771.853 2.153 1.757 4.38 1.757 2.976 0 4.265-1.499 4.265-3.58 0-1.598-.76-2.68-3.008-3.43l-1.488-.5c-.546-.182-.794-.4-.794-.832 0-.45.364-.782 1.092-.782.867 0 1.453.313 1.91.774.012.012 1.304-1.308 1.666-1.678a.143.143 0 0 0 .006-.196C68.18.85 67.009.193 65.11.193c-2 0-3.835 1.149-3.835 3.38 0 1.865 1.157 2.864 2.794 3.413l1.322.45c.744.25 1.108.483 1.108.966 0 .632-.53.899-1.422.899-1.057 0-1.765-.543-2.299-1.176a.142.142 0 0 0-.21-.01l-1.733 1.747zm-36.78 1.646c0 .08.062.143.14.143h2.727a.142.142 0 0 0 .141-.143V2.876h2.834a.142.142 0 0 0 .142-.142V.47a.142.142 0 0 0-.142-.143h-9.854a.142.142 0 0 0-.128.204l1.069 2.263c.023.05.073.08.128.08h2.942v8.633zM44.933 5.99c0-1.781-1.075-3.163-2.96-3.163-1.884 0-2.958 1.382-2.958 3.163 0 1.782 1.074 3.18 2.959 3.18 1.884 0 2.959-1.398 2.959-3.18zm-8.993 0c0-3.413 2.794-5.794 6.034-5.794 3.24 0 6.034 2.381 6.034 5.794 0 3.414-2.794 5.812-6.034 5.812-3.24 0-6.034-2.398-6.034-5.812zM31.602.33a.142.142 0 0 0-.141.142v11.037c0 .08.063.143.141.143h2.726a.142.142 0 0 0 .142-.143V.471a.142.142 0 0 0-.142-.143h-2.726z" mask="url(#d)"/>
        </g>
        <path fill="#FEFEFE" d="M22.564 34.217H24.6l-1.027-2.431-1.01 2.431zm2.998 2.23h-3.926l-.527 1.295a.142.142 0 0 1-.131.09H18.35a.145.145 0 0 1-.129-.209l5.386-11.477c.05-.118.15-.118.199 0l5.37 11.477a.145.145 0 0 1-.129.208h-2.796a.143.143 0 0 1-.13-.087l-.56-1.298zm11.415-1.503c-.48.236-1.094.455-2.187.455-1.988 0-3.015-1.502-3.015-3.309 0-1.807 1.01-3.209 2.85-3.209 1.061 0 1.829.435 2.385 1.107a.141.141 0 0 0 .211.011l1.765-1.814a.149.149 0 0 0 .006-.199c-.984-1.119-2.457-1.772-4.3-1.772-3.248 0-5.998 2.414-5.998 5.876s2.75 5.893 6.063 5.893c2.502 0 3.86-.709 4.904-1.587v-4.82a.144.144 0 0 0-.143-.145h-4.635a.144.144 0 0 0-.143.145v2.074c0 .08.065.145.143.145h2.094v1.149zm15.832-8.595a.144.144 0 0 0-.143.144v11.193c0 .08.064.145.143.145h7.849a.144.144 0 0 0 .142-.145v-2.293a.144.144 0 0 0-.142-.146H55.68v-1.975h3.933a.144.144 0 0 0 .142-.145v-2.159a.144.144 0 0 0-.142-.145h-3.933v-1.89h4.745a.144.144 0 0 0 .142-.146v-2.294a.144.144 0 0 0-.142-.144h-7.617zM41.053 33.39c0 3.09 2.07 4.61 4.887 4.61 2.816 0 4.887-1.52 4.887-4.61v-6.896a.144.144 0 0 0-.142-.145h-2.73a.144.144 0 0 0-.144.145v6.862c0 1.31-.604 2.055-1.9 2.043-1.028-.009-1.843-.893-1.843-1.941v-6.964a.144.144 0 0 0-.143-.145h-2.73a.144.144 0 0 0-.142.145v6.896zM9.337 26.349a.144.144 0 0 0-.142.144v11.193c0 .08.063.145.142.145h7.85a.144.144 0 0 0 .141-.145v-2.293a.144.144 0 0 0-.142-.146H12.21v-1.975h3.933a.144.144 0 0 0 .143-.145v-2.159a.144.144 0 0 0-.143-.145H12.21v-1.89h4.745a.144.144 0 0 0 .142-.146v-2.294a.144.144 0 0 0-.142-.144H9.337zm-9.195 0a.144.144 0 0 0-.142.144v11.193c0 .08.064.145.142.145H7.66a.144.144 0 0 0 .142-.145v-2.293a.144.144 0 0 0-.142-.146H3.015v-8.754a.144.144 0 0 0-.142-.144H.143zM60.8 26.4v-.305c0-.021.022-.038.05-.038h2.072c.028 0 .05.017.05.038v.306c0 .02-.022.037-.05.037h-.735v1.753c0 .02-.022.038-.049.038h-.48c-.027 0-.049-.017-.049-.038v-1.753h-.76c-.027 0-.049-.016-.049-.037"/>
        <path fill="#FEFEFE" d="M62.971 26.057h.04l1.007 1.087a.054.054 0 0 0 .078 0l1.008-1.087h.039v2.119c0 .029-.024.053-.053.053h-.32a.053.053 0 0 1-.054-.053v-1.202l-.619.707a.053.053 0 0 1-.08 0l-.61-.707v1.202c0 .029-.023.053-.052.053h-.33a.053.053 0 0 1-.054-.053v-2.119z"/>
    </g>
</svg>
