<svg xmlns="http://www.w3.org/2000/svg" xmlns:xlink="http://www.w3.org/1999/xlink" width="40" height="45" viewBox="0 0 40 45">
    <defs>
        <path id="a" d="M0 .025h1.91V40.94H0z"/>
        <path id="c" d="M.025.037h30.652v37.258H.025z"/>
    </defs>
    <g fill="none" fill-rule="evenodd">
        <g transform="translate(0 3.557)">
            <mask id="b" fill="#fff">
                <use xlink:href="#a"/>
            </mask>
            <path fill="#FFF" d="M1.91.182A.155.155 0 0 0 1.69.039c-.337.15-1 .504-1.53 1.16A.74.74 0 0 0 0 1.664v37.61c0 .19.086.367.234.484l1.402 1.15c.11.086.274.007.274-.134V.182" mask="url(#b)"/>
        </g>
        <path fill="#FFF" d="M28.673 17.05c-.445-.08-.923-.195-1.426-.343v.002l-.008-.003c.018.6-.194 1.077-.608 1.355-.215.144-.49.187-.797.123-.68-.142-1.447-.771-2.003-1.643a4.313 4.313 0 0 1-.57-1.442h-.001a27.782 27.782 0 0 1-1.285-.684c.825 1.196 1.614 2.501 2.442 3.874.3.495.608 1.007.922 1.518 1.126-.828 2.23-1.671 3.334-2.757"/>
        <path fill="#FFF" d="M24.442 13.391a.816.816 0 0 0-.67.184c-.275.235-.375.724-.276 1.348.851.42 2.105.988 3.438 1.414-.085-.451-.292-.938-.595-1.393-.582-.875-1.31-1.47-1.897-1.553M32.794 21.17c-1.253-1.116-2.517-2.432-3.854-4.014h-.001c-1.126 1.121-2.25 1.983-3.394 2.825 1.398.768 2.52 1.196 3.615 1.384 1.132.194 2.293.133 3.634-.194M32.839 19.087c.633-.019 1.237-.372 1.617-.945l.002-.004c.336-.468.523-.966.548-1.453a9.752 9.752 0 0 1-3.528.637c-.129 0-.259-.003-.39-.007.05.432.208.832.458 1.166.3.4.772.622 1.293.606M21.236 17.718c1.2.462 2.312 1.11 3.293 1.683l.393.228c-.248-.406-.492-.81-.73-1.204-.916-1.518-1.783-2.953-2.702-4.244l-.026.02c-1.202.89-2.442 1.81-3.664 2.923 1.066-.079 2.195.117 3.436.594M25.887 17.926c.24.05.44.022.598-.083.354-.238.526-.669.486-1.219-1.298-.405-2.53-.95-3.407-1.376.103.41.275.818.489 1.152.511.801 1.231 1.4 1.834 1.526M36.888 19.529l.088-.053c.162-1.219.228-2.478.219-3.794-1.389 2.083-2.63 3.83-3.78 5.322 1.204-.354 2.48-.889 3.473-1.475M18.51 11.562c-.495-.563-1.095-.872-1.692-.872h-.012c-.53.004-1.018.25-1.413.712a2.743 2.743 0 0 0-.637 1.405c1.466-.478 2.895-.498 4.353-.062a2.573 2.573 0 0 0-.598-1.183M21.282 14.008a10.746 10.746 0 0 0-1.862-.885c.027.654-.186 1.273-.6 1.725-.367.399-.948.642-1.596.666a2.797 2.797 0 0 1-2.018-.737 2.25 2.25 0 0 1-.73-1.593c-.646.243-1.3.573-1.986 1.003 2.223 1.08 3.67 1.942 4.923 2.936 1.29-1.201 2.6-2.175 3.87-3.115M29.428 8.815v-.001c-.488.02-.99.01-1.495-.028 1.275 1.291 2.709 2.469 4.369 3.588.934-1.536 1.852-3.321 2.798-5.442-.395.283-.832.54-1.36.803l-.002.002c.057.444-.006.915-.184 1.367-.332.844-.86 1.399-1.486 1.56-.581.151-1.21-.035-1.82-.538a2.38 2.38 0 0 1-.817-1.312h-.003M7.792 21.41c1.3-1.855 2.26-3.6 3.108-5.143.32-.582.626-1.14.927-1.657-.57.358-1.132.687-1.677.983-.038.608-.267 1.28-.667 1.95-.658 1.102-1.517 1.83-2.356 2-.49.098-.953 0-1.338-.285-.441-.325-.679-.921-.663-1.652l-.006.002v-.002c-.682.168-1.298.252-1.977.335 1.232 1.17 2.943 2.448 4.65 3.47M11.13 16.394c-.81 1.473-1.72 3.129-2.932 4.893.857-.38 1.764-.892 2.717-1.43 1.882-1.062 4.005-2.26 6.188-2.643-1.224-.949-2.656-1.79-4.832-2.84a65.12 65.12 0 0 0-1.141 2.02M36.56 10.855l.039-.024c-.391-1.669-.863-3.027-1.122-4.102-.967 2.194-1.903 4.04-2.855 5.624 1.305-.336 2.75-.765 3.938-1.498"/>
        <path fill="#FFF" d="M7.602 11.975c-1.18 1.867-2.58 3.969-4.367 5.69.65-.081 1.248-.168 1.908-.336a3.621 3.621 0 0 1 .611-1.66c.438-.635 1.017-1.204 1.59-1.561.72-.45 1.39-.546 1.938-.277.524.257.834.783.869 1.462a32.006 32.006 0 0 0 1.8-1.073 81.563 81.563 0 0 1-4.349-2.245M7.844 11.808a82.8 82.8 0 0 0 4.326 2.225c1.333-2.19 2.668-3.986 4.073-5.474-2.04.126-4.552 1.362-6.984 2.56-.467.23-.947.465-1.415.69M16.904 8.556a36.594 36.594 0 0 1 4.643 5.255c1.128-.837 2.082-1.56 3.017-2.384a59.06 59.06 0 0 1-1.663-.805c-1.95-.968-3.964-1.968-5.997-2.066M12.623 13.797c.638-.38 1.25-.675 1.859-.895a2.94 2.94 0 0 1 .711-1.671c.446-.521 1.003-.8 1.61-.804h.015c.673 0 1.344.341 1.89.961.37.42.605.918.684 1.447a10.36 10.36 0 0 1 1.653.736 36.52 36.52 0 0 0-4.479-4.97c-1.36 1.418-2.653 3.123-3.943 5.196M5.945 19.047c.329.242.709.322 1.13.237.767-.154 1.563-.838 2.182-1.876.342-.573.552-1.144.615-1.666-1.529.808-2.998 1.397-4.48 1.794-.03.67.173 1.23.553 1.51"/>
        <path fill="#FFF" d="M9.167 14.067a1.212 1.212 0 0 0-.54-.122c-.42 0-.833.191-1.144.386-.543.34-1.094.881-1.512 1.487a3.359 3.359 0 0 0-.555 1.44c1.478-.406 2.945-1.003 4.476-1.824.003-.651-.253-1.135-.725-1.367M36.66 11.102c-1.218.742-2.68 1.174-3.998 1.512a55.706 55.706 0 0 0 4.517 2.679l.01-.007a21.163 21.163 0 0 0-.528-4.184M36.93 15.457a55.78 55.78 0 0 1-4.547-2.713c-.99 1.599-2.028 2.952-3.162 4.126.478.07 1.018.137 1.585.17a3.026 3.026 0 0 1 .53-1.747c.749-1.09 2.048-1.218 2.822-.714.635.415 1.02 1.022 1.1 1.724a12.045 12.045 0 0 0 1.671-.846"/>
        <path fill="#FFF" d="M36.757 15.864c-.47.267-.96.504-1.483.716h-.001c-.003.575-.209 1.163-.6 1.71-.426.642-1.109 1.039-1.827 1.06a1.794 1.794 0 0 1-1.51-.712 2.674 2.674 0 0 1-.515-1.334h-.002a17.794 17.794 0 0 1-1.546-.161c1.31 1.536 2.548 2.817 3.776 3.903 1.131-1.454 2.348-3.154 3.708-5.182M24.777 11.59v-.001c-.94.833-1.896 1.558-3.022 2.395.443.262.94.534 1.457.796-.067-.637.068-1.131.39-1.405.243-.206.546-.29.876-.244.67.094 1.448.717 2.08 1.667.352.529.583 1.102.656 1.625.495.15.966.266 1.403.349-1.252-1.51-2.512-3.211-3.84-5.183M25.164 11.692c1.309 1.929 2.552 3.594 3.791 5.075 1.115-1.142 2.135-2.457 3.11-4.009-1.982.412-4.247.062-6.9-1.066"/>
        <path fill="#FFF" d="M34.014 14.8c-.67-.438-1.802-.317-2.461.642a2.761 2.761 0 0 0-.484 1.61c1.414.05 2.67-.157 3.934-.647-.05-.654-.4-1.22-.989-1.605M15.386 14.585a2.54 2.54 0 0 0 1.828.666c.578-.022 1.093-.233 1.412-.58.388-.424.577-1.017.524-1.638-1.479-.467-2.925-.448-4.413.058a1.997 1.997 0 0 0 .65 1.494M31.9 27.05c.361.3.836.426 1.303.347.501-.086.943-.409 1.244-.91a3.16 3.16 0 0 0 .454-1.566c-1.223.504-2.448.795-3.648.868.027.377.17.865.647 1.26M5.755 9.177c.362.269.795.36 1.253.263.761-.162 1.541-.836 2.086-1.803.343-.608.53-1.282.527-1.879-.46.236-.909.49-1.344.737-.91.515-1.85 1.047-2.986 1.475-.002.547.165.984.464 1.207M11.52 4.674c-1.229-.777-2.644-1.49-4.314-2.176-1.114 2.018-2.709 4.484-3.962 5.81a12.225 12.225 0 0 0 1.79-.523c.041-.654.284-1.35.689-1.97.457-.701 1.066-1.242 1.716-1.522.648-.28 1.277-.283 1.772-.008.338.188.562.562.641 1.064a12.55 12.55 0 0 1 1.668-.675M22.084 31.086a27.568 27.568 0 0 0-4.603-4.126c-2.124 2.432-3.313 4.535-4.297 6.48.647-.468 1.254-.861 1.845-1.195.029-.505.237-1.045.667-1.735.579-.929 1.371-1.528 2.174-1.646.608-.088 1.196.1 1.7.546.418.37.68.866.76 1.441a8.96 8.96 0 0 1 1.754.235M22.328 6.138c-.094-.416-.133-.934.147-1.21a.777.777 0 0 1 .64-.23c.839.074 1.75 1.27 2.01 1.635.424.595.737 1.226.888 1.785.428.152.836.26 1.235.326-.463-.52-.959-1.167-1.479-1.847-.73-.953-1.554-2.03-2.46-2.978-.914.46-1.756 1.012-2.572 1.547l-.001.002c.523.295 1.045.624 1.592.97"/>
        <path fill="#FFF" d="M7.513 11.623C8.218 10.5 8.89 9.355 9.541 8.246a108.453 108.453 0 0 1 1.984-3.297 12.5 12.5 0 0 0-1.644.679c.033.674-.168 1.447-.558 2.138-.59 1.048-1.414 1.751-2.26 1.93a1.772 1.772 0 0 1-1.465-.308c-.348-.259-.55-.734-.569-1.321l-.006.002c-.608.218-1.185.395-1.883.528 1.1.977 2.638 2.042 4.373 3.026"/>
        <path fill="#FFF" d="M9.083 4.514a1.41 1.41 0 0 0-.692-.17c-.267 0-.554.063-.847.19-.604.26-1.172.766-1.601 1.424-.356.546-.578 1.151-.637 1.725 1.069-.413 1.97-.923 2.841-1.417.47-.266.955-.541 1.457-.794-.055-.462-.238-.8-.521-.958M29.854 34.097a7.43 7.43 0 0 1-1.629-.324v.003l-.008-.003c.01.58-.19 1.083-.536 1.313-.188.125-.454.156-.772.09-.694-.146-1.44-.703-1.9-1.42a5.177 5.177 0 0 1-.71-1.674 18.193 18.193 0 0 0-1.448-.512c1.604 1.893 2.835 3.677 3.664 5.31a18.004 18.004 0 0 0 3.339-2.783M19.395 29.607c-.373-.33-.796-.5-1.236-.5-.083 0-.167.005-.25.018-.727.106-1.452.661-1.99 1.524-.356.572-.55 1.028-.61 1.442 1.546-.826 3.141-1.244 4.745-1.244h.01a2.055 2.055 0 0 0-.669-1.24"/>
        <g transform="translate(7.26)">
            <mask id="d" fill="#fff">
                <use xlink:href="#c"/>
            </mask>
            <path fill="#FFF" d="M30.677 32.392c-.323.104-.687.237-1.068.376l-.58.21h-.002c.159.64.061 1.35-.27 1.923-.252.436-.708.755-1.253.875a2.206 2.206 0 0 1-1.744-.34c-.498-.351-.814-.83-.92-1.39h-.004c-.548.064-1.091.09-1.621.081 2.042 1.955 4.08 2.966 4.512 3.168.551-.598 1.139-1.397 1.662-2.263.536-.886.978-1.794 1.288-2.64M.025 2.247c1.767.707 3.243 1.476 4.507 2.288C5.974 2.322 7.178.955 8.407.141a10.955 10.955 0 0 0-4.47.298c-1.2.334-2.568.948-3.912 1.808" mask="url(#d)"/>
        </g>
        <path fill="#FFF" d="M16.36 34.154a2.058 2.058 0 0 0 1.648.049c.526-.202 1.036-.61 1.473-1.18a2.977 2.977 0 0 0 .61-1.913c-1.624-.006-3.238.428-4.803 1.291.008.774.423 1.456 1.071 1.753M32.283 6.153a1.621 1.621 0 0 0-.7-.162 1.62 1.62 0 0 0-.549.097c-.49.175-.913.576-1.16 1.1-.206.44-.284.905-.226 1.352 1.37-.083 2.646-.404 3.798-.954-.136-.633-.546-1.14-1.163-1.433M21.529 22.261c-1.332-2.08-2.613-3.574-4.103-4.79-1.84 1.744-3.332 3.68-4.663 6.054a14.203 14.203 0 0 1 1.915-1.074c.042-.703.346-1.397.86-1.961.594-.653 1.355-1.005 2.088-.964.626.034 1.19.357 1.59.908.29.399.481.824.568 1.266a7.7 7.7 0 0 1 1.745.561M9.304 24.064a1.619 1.619 0 0 0-.842-.23c-.227 0-.463.043-.704.13-.56.204-1.123.63-1.624 1.234a3.329 3.329 0 0 0-.737 1.685 15.77 15.77 0 0 0 4.585-1.604c-.028-.554-.256-.963-.678-1.215"/>
        <path fill="#FFF" d="M12.115 23.971a43.119 43.119 0 0 1-4.248-2.21c-1.153 1.629-2.602 3.522-4.65 5.392.648-.04 1.243-.11 1.91-.223.067-.674.357-1.36.805-1.9.531-.64 1.132-1.093 1.737-1.313.638-.231 1.25-.19 1.77.121.463.277.735.725.796 1.305a21.4 21.4 0 0 0 1.88-1.172M5.907 28.557c.395.33.905.47 1.437.393.703-.102 1.364-.57 1.86-1.319.454-.683.729-1.418.774-2.053a15.996 15.996 0 0 1-4.601 1.576c-.015.598.175 1.106.53 1.403"/>
        <path fill="#FFF" d="M7.47 21.867c-2.22.832-3.715.94-4.6.876l-.017-.001v4.385c2.02-1.81 3.466-3.653 4.616-5.26M30.415 9.924c.542.446 1.091.615 1.587.486.542-.14 1.007-.638 1.307-1.402.15-.381.21-.775.178-1.15-1.155.539-2.427.855-3.789.942.113.441.358.828.717 1.124M34.413 23.605a1.446 1.446 0 0 0-1.105-.367c-.548.048-1.091.378-1.53.929-.312.393-.5.88-.527 1.359 1.209-.074 2.401-.364 3.637-.884-.046-.441-.213-.807-.475-1.037M19.004 20.588c-.358-.493-.84-.77-1.392-.8a1.839 1.839 0 0 0-.1-.003c-.623 0-1.266.318-1.78.882a2.994 2.994 0 0 0-.78 1.663c1.57-.67 3.099-.897 4.552-.678a2.974 2.974 0 0 0-.5-1.064"/>
        <path fill="#FFF" d="M36.377 23.912c-1.312-.886-2.365-1.682-3.292-2.485a45.259 45.259 0 0 1-3.572 4.054c.492.055.986.075 1.474.058.024-.54.234-1.094.586-1.536.484-.607 1.091-.972 1.711-1.027.483-.043.934.107 1.303.432.294.259.487.654.552 1.125.402-.18.824-.39 1.238-.62M24.805 21.962c-.285-.039-.543.053-.767.273-.25.245-.35.669-.282 1.2 1.03.545 2.147 1.099 3.356 1.503a3.475 3.475 0 0 0-.443-1.308c-.41-.708-1.145-1.57-1.864-1.668"/>
        <path fill="#FFF" d="M28.906 25.395c-1.483-1.8-2.714-3.705-3.642-5.208l-.378.277c-.881.643-1.79 1.308-2.761 2.096.255.135.512.274.78.418l.572.308c-.034-.536.094-.961.377-1.239.285-.28.617-.396.987-.345.366.05.75.26 1.142.626.33.308.654.724.913 1.17.274.473.443 1 .49 1.528.52.162 1.021.283 1.52.369M15.568 24.088c.47.38 1.092.556 1.748.497.616-.055 1.191-.311 1.578-.703.513-.52.75-1.228.66-1.956-1.468-.24-3.02-.006-4.618.698 0 .61.228 1.14.632 1.464M26.155 26.71c.188.041.35.017.48-.07.33-.223.522-.773.5-1.419-1.197-.389-2.3-.923-3.32-1.458.097.413.277.848.52 1.25.549.908 1.263 1.574 1.82 1.697M9.426 33.919a2.166 2.166 0 0 0-.966-.22c-.294 0-.597.054-.898.163a3.214 3.214 0 0 0-1.546 1.206c-.315.47-.463.94-.45 1.432 1.625-.13 3.26-.56 4.744-1.251-.06-.614-.364-1.073-.884-1.33"/>
        <path fill="#FFF" d="M12.465 34.291c-.51.357-1.163.772-1.88 1.119h-.002c.016.634-.187 1.335-.576 1.984-.57.953-1.318 1.292-1.844 1.408-.654.145-1.327.026-1.848-.327-.524-.354-.895-.995-.989-1.694h-.003c-.693.036-1.408-.02-2.096-.098 1.503 1.443 3.147 2.931 5.011 4.2 2.116-2.342 3.191-4.502 4.227-6.592M33.194 29.556c-1.411-1.065-2.714-2.306-3.973-3.785-1.014 1-2.03 1.97-3.21 2.848a9.888 9.888 0 0 0 3.724 1.16c1.118.114 2.28.039 3.46-.223"/>
        <path fill="#FFF" d="M6.462 38.258c.462.312 1.06.417 1.644.287.476-.105 1.153-.414 1.676-1.286.34-.567.527-1.172.539-1.726a14.267 14.267 0 0 1-4.732 1.23c.087.62.414 1.184.873 1.495M25.527 28.648l-.07-.04c-.97-.552-2.068-1.179-3.375-1.567a8.79 8.79 0 0 0-4.302-.19 27.853 27.853 0 0 1 4.693 4.279c1.053-.984 2.086-1.775 3.054-2.482M15.7 35.293c-.916-.397-1.863-.809-2.819-1.25l-.165.332c-1.043 2.106-2.12 4.281-4.25 6.648 4.469-.967 6.04-2.923 9.75-4.614-.796-.369-1.632-.732-2.516-1.116M22.202 31.385a8.783 8.783 0 0 0-1.848-.27 3.25 3.25 0 0 1-.665 2.069c-.99 1.29-2.276 1.742-3.44 1.21-.7-.321-1.162-1.032-1.219-1.848-.62.36-1.264.786-1.954 1.298.924.425 1.84.823 2.729 1.208.882.383 1.718.746 2.514 1.114 1.182-2.054 2.557-3.517 3.883-4.78M36.932 28.11l.013-.006a22.892 22.892 0 0 1-.32-3.862 42.757 42.757 0 0 1-2.831 5.163c.951-.269 2.066-.726 3.113-1.28l.025-.014M36.341 24.232c-.396.214-.796.41-1.177.577l-.001.001a3.403 3.403 0 0 1-.49 1.812c-.342.568-.848.935-1.426 1.034a1.876 1.876 0 0 1-1.515-.404c-.44-.365-.701-.876-.742-1.45h-.004a10.35 10.35 0 0 1-1.437-.053c1.24 1.438 2.525 2.645 3.916 3.682a42.655 42.655 0 0 0 2.876-5.2M27.587 8.427c.916-1.068 1.89-2.34 2.847-4.312-1.919.495-4.19.369-6.822-.558.871.928 1.663 1.962 2.366 2.88.572.748 1.113 1.456 1.61 1.99M20.513 5l.06-.04c.822-.54 1.67-1.098 2.596-1.566C20.5 2.364 18.724.69 16.136.214c1.258 1.004 2.728 2.611 4.377 4.785M2.853 8.332l.004-.004c.922-.914 2.492-3.027 4.06-5.851C4.85 3.737 2.853 3.85 2.853 3.85v4.482M7.523 31.595c-1.82.51-3.533.709-4.655.536l-.015-.003v4.207c1.846-1.52 3.302-2.998 4.67-4.74M5.304 36.518c-.018-.552.144-1.076.494-1.597a3.482 3.482 0 0 1 1.674-1.307c.72-.26 1.456-.235 2.07.07.571.282.927.79 1.019 1.445.79-.392 1.497-.862 2.003-1.232-1.597-.743-3.156-1.489-4.656-2.369-1.395 1.81-2.867 3.329-4.735 4.884.7.082 1.43.142 2.131.106M2.853 36.688v4.234s2.28.744 5.238.178c-1.96-1.334-3.674-2.904-5.238-4.412M24.545 30.585a1.03 1.03 0 0 1 .798-.243c.648.06 1.422.612 2.124 1.512.403.516.653 1.079.727 1.633a7.25 7.25 0 0 0 1.606.341c-1.357-1.384-2.69-3.027-4.063-5.008-.955.697-1.975 1.474-3.014 2.437.513.15 1.016.323 1.525.522-.065-.547.038-.966.297-1.194"/>
        <path fill="#FFF" d="M22.454 31.51c-1.324 1.255-2.7 2.704-3.88 4.742 3.263-1.358 6.195-.09 7.687.707-.854-1.67-2.134-3.501-3.807-5.45M35.156 31.85a2.048 2.048 0 0 0-1.011-.284c-.574 0-1.102.28-1.455.81-.262.395-.395.9-.364 1.376 1.354-.185 2.59-.572 3.635-.938a1.808 1.808 0 0 0-.805-.964M30.144 34.174a18.317 18.317 0 0 1-3.548 2.967c2.316 1.229 4.976 1.383 8.236.372-.54-.258-2.633-1.326-4.688-3.34M36.873 35.168a15.103 15.103 0 0 1-1.603 2.206c2.923-.914 4.727-1.043 4.727-1.043s-.853-1.856-1.772-3.966a15.578 15.578 0 0 1-1.352 2.803M36.993 28.376c-.549.289-1.844.929-3.19 1.3 1.221.87 2.657 1.655 4.27 2.338a17.787 17.787 0 0 1-1.08-3.638M26.963 34.918c.243.051.446.033.572-.05.29-.194.45-.654.415-1.186-.627-.22-1.23-.504-1.867-.805-.467-.22-.948-.447-1.484-.672.122.465.341.957.631 1.409.515.803 1.256 1.204 1.733 1.304M33.17 35.221c.437.308.997.417 1.537.298.473-.104.867-.377 1.082-.75a2.365 2.365 0 0 0 .248-1.703c-1.056.37-2.304.759-3.676.947.096.485.374.9.81 1.208M27.912 33.39c-.068-.363-.241-.848-.652-1.375-.658-.843-1.365-1.357-1.941-1.411a.763.763 0 0 0-.6.178c-.21.184-.277.587-.189 1.11.611.25 1.147.503 1.665.748.588.277 1.147.541 1.717.75M33.21 29.822c-1.193.26-2.369.334-3.502.218a10.112 10.112 0 0 1-3.519-1.032c1.332 1.89 2.628 3.46 3.947 4.787 1.054-1.15 2.086-2.485 3.073-3.973"/>
        <path fill="#FFF" d="M32.065 33.785a2.545 2.545 0 0 1 .406-1.554 2.047 2.047 0 0 1 1.226-.875c.519-.123 1.068-.03 1.589.265.429.244.745.625.922 1.106l.57-.206c.35-.128.686-.25.99-.351-1.6-.693-3.022-1.486-4.234-2.363v.001c-.996 1.517-2.039 2.88-3.105 4.055.534.012 1.083-.014 1.636-.078M2.853 8.693v4.353c1.03-.003 2.743-.494 4.418-1.259C5.508 10.78 3.95 9.69 2.855 8.694l-.002-.001M26.09 8.426l-.01-.003c.076.46.019.837-.17 1.1a.621.621 0 0 1-.533.27c-.396-.006-.837-.32-1.138-.583a6.732 6.732 0 0 1-1.099-1.268 5.938 5.938 0 0 1-.706-1.427l-.205-.129a51.372 51.372 0 0 0-1.263-.782c1.332 1.801 2.57 3.655 3.496 5.041l.365.547c.983-.884 1.732-1.598 2.503-2.47a7.093 7.093 0 0 1-1.24-.3v.004M27.597 8.818c-.791.902-1.578 1.654-2.556 2.535 1.998.874 3.769 1.308 5.358 1.309.562 0 1.1-.055 1.62-.163-1.683-1.146-3.133-2.353-4.422-3.681"/>
        <path fill="#FFF" d="M23.092 4.96a.519.519 0 0 0-.432.155c-.184.182-.185.639-.005 1.229 1.016.64 2.016 1.246 3.05 1.657a5.81 5.81 0 0 0-.794-1.516c-.764-1.073-1.44-1.491-1.82-1.524M16.869 8.291c2.104.087 4.159 1.107 6.15 2.096.465.231.944.469 1.415.69l-.19-.286c-.994-1.488-2.35-3.516-3.792-5.436a22.713 22.713 0 0 0-3.583 2.936M25.38 9.53h.007a.36.36 0 0 0 .31-.161c.165-.23.197-.593.094-1.052-1.023-.383-2.003-.955-2.993-1.573.147.36.343.73.56 1.051.675.998 1.526 1.727 2.022 1.734M34.85 2.204s-2.111 1.232-4.087 1.819c1.146.806 3.06 1.774 4.632 2.34-.5-2.335-.544-4.16-.544-4.16M24.73 20.252l.33-.24c-.213-.122-.434-.25-.664-.384-1.879-1.096-4.2-2.45-6.652-2.236 1.51 1.264 2.812 2.821 4.176 4.995.991-.806 1.915-1.481 2.81-2.135M29.385 8.552c-.059-.49.027-.997.252-1.476.276-.587.753-1.037 1.309-1.236a1.854 1.854 0 0 1 1.45.075c.672.32 1.126.867 1.292 1.552a8.99 8.99 0 0 0 1.474-.909c-1.544-.573-3.378-1.504-4.51-2.292a19.202 19.202 0 0 1-2.795 4.25c.517.043 1.029.055 1.528.036M18.086 6.095c-.383.395-.938.588-1.562.545a3.031 3.031 0 0 1-1.678-.683 2.4 2.4 0 0 1-.866-1.633 20.96 20.96 0 0 0-1.839.44 36.223 36.223 0 0 1 4.415 3.47 22.975 22.975 0 0 1 3.67-3.046 10.007 10.007 0 0 0-1.65-.698c.076.633-.095 1.197-.49 1.605M8.23 31.103c1.546-.529 2.988-1.377 4.386-2.2 1.544-.908 3.006-1.77 4.531-2.176a28.553 28.553 0 0 0-4.706-2.612l-.128.237c-1.258 2.339-2.45 4.554-4.084 6.751M36.931 19.807A16.65 16.65 0 0 1 33.34 21.3c.924.793 1.977 1.583 3.29 2.466.023-1.627.173-3 .302-3.958M32.726 21.457c-1.322.309-2.478.362-3.61.167-1.057-.181-2.133-.578-3.44-1.273 1.647 2.641 2.762 4.076 3.562 5.033a44.51 44.51 0 0 0 3.488-3.927M28.95 25.669a11.924 11.924 0 0 1-1.545-.362v.001l-.005-.002c.003.703-.226 1.287-.618 1.551-.193.13-.423.167-.684.11-.633-.14-1.395-.837-1.988-1.818a4.546 4.546 0 0 1-.595-1.545c-.249-.132-.496-.265-.735-.394l-.523-.282c1.28 2.06 2.399 3.854 3.543 5.52 1.157-.853 2.156-1.8 3.15-2.78M2.864 22.479c.875.068 2.386-.04 4.669-.918-1.732-1.05-3.457-2.351-4.68-3.534v4.451l.01.001M2.874 31.865c1.105.181 2.836-.025 4.675-.55-1.897-1.152-3.437-2.402-4.696-3.813v4.36l.021.003"/>
        <path fill="#FFF" d="M17.085 27.017c-1.445.411-2.853 1.24-4.335 2.112-1.445.851-2.937 1.729-4.554 2.263 1.469.85 2.998 1.578 4.564 2.305 1-2.003 2.17-4.166 4.325-6.68M12.008 24.364c-.593.4-1.183.759-1.76 1.07v.001c-.011.717-.309 1.565-.825 2.342-.538.812-1.264 1.32-2.042 1.433a2.063 2.063 0 0 1-1.643-.452c-.406-.34-.63-.901-.625-1.558H5.11a18 18 0 0 1-1.975.221c1.26 1.391 2.804 2.624 4.707 3.762 1.683-2.217 2.896-4.456 4.167-6.82M22.157 26.79c1.224.363 2.261.926 3.182 1.449-1.096-1.618-2.18-3.36-3.416-5.35l-.068-.109c-1.581 1.305-2.905 2.55-4.031 3.795a9.03 9.03 0 0 1 4.333.214M21.65 22.61a7.543 7.543 0 0 0-1.826-.634 2.601 2.601 0 0 1-.743 2.09c-.43.436-1.065.72-1.742.781-.724.065-1.412-.132-1.936-.554-.44-.353-.699-.91-.728-1.551-.661.31-1.341.706-2.025 1.177a28.752 28.752 0 0 1 4.79 2.69c1.166-1.314 2.546-2.625 4.21-4M7.21 12.104c-1.64.729-3.301 1.194-4.332 1.204l-.025.01v4.347c1.776-1.653 3.176-3.707 4.356-5.561M15.996 2.039c-.444-.017-.856.162-1.225.533-.341.343-.54.873-.543 1.44.655-.108 1.27-.163 1.859-.163.75 0 1.456.09 2.146.269a3.21 3.21 0 0 0-.633-1.173c-.476-.556-1.06-.886-1.604-.906"/>
        <path fill="#FFF" d="M15.012 5.752c.954.775 2.22.845 2.885.16.456-.47.477-1.063.402-1.504-1.257-.35-2.518-.391-4.06-.13.06.596.332 1.116.773 1.474"/>
        <path fill="#FFF" d="M15.858.33c-1.179.767-2.339 2.063-3.725 4.163.67-.188 1.274-.33 1.832-.434-.007-.653.22-1.272.62-1.672.423-.425.901-.63 1.42-.611.627.023 1.264.378 1.794.998.348.407.61.922.726 1.426.494.147.987.342 1.496.59-1.554-2.011-2.985-3.545-4.163-4.46M17.02 17.496c-2.094.4-4.15 1.56-5.976 2.59-1.025.578-1.997 1.127-2.92 1.52a42.3 42.3 0 0 0 4.2 2.17c1.343-2.473 2.844-4.481 4.697-6.28M9.767 8.379c-.598 1.02-1.214 2.07-1.858 3.107.41-.198.827-.403 1.233-.603 2.459-1.21 4.997-2.46 7.092-2.587A35.777 35.777 0 0 0 11.87 4.9c-.696 1.081-1.38 2.247-2.102 3.479"/>
    </g>
</svg>
