<svg xmlns="http://www.w3.org/2000/svg" width="39" height="38" viewBox="0 0 39 38">
    <g fill="none" fill-rule="evenodd">
        <path d="M0 0h38.095v38.095H0z"/>
        <path fill="#FFF" fill-rule="nonzero" d="M27.757 34.493c.396-1.824.1-3.52.1-3.52-1.167 1.677-2.313 2.954-3.372 3.927-2.855.149-5.083-.217-5.083-.217s1.273 1.274 2.742 2.008c-1.938 1.202-3.236 1.305-3.236 1.305 8.487.18 13.583-5.362 13.583-5.362-1.431.943-3.09 1.52-4.734 1.859zm-8.355.19s-1.725-.687-4.198-2.082c.086-1.487.316-3.378.787-5.78 0 0-1.965 1.944-4.511 3.451a42.465 42.465 0 0 1-4.537-3.602s.735 2.27 2.149 4.768c-1.344.502-2.727.736-3.992.427 0 0 1.494 1.864 6.103 2.66 1.28 1.513 2.835 2.766 4.652 3.202 0 0-.546-.602-.668-2.855a37.987 37.987 0 0 0 4.215-.19v.001zM9.217 17.82c-2.059.063-3.671.245-4.93.474-.354-2.205-.41-3.788-.41-3.788-1.015 1.552-1.675 3.049-2.082 4.442C.362 19.48 0 19.996 0 19.996c.223.763.67 1.507 1.235 2.205-.176 3.3.89 5.481.89 5.481.242-1.159.72-2.284 1.324-3.337a24.729 24.729 0 0 0 3.494 2.325c-.82-1.467-1.422-3.112-1.866-4.707 1.969-2.473 4.14-4.143 4.14-4.143zM4.464 9.862A33.735 33.735 0 0 1 8.082 6.84s-1.333 0-2.742.358C6.273 4.942 7.305 3.69 7.305 3.69S1.372 7.911.248 15.495c0 0 .497-1.37 2.188-3.44.67 1.505 1.441 2.451 1.441 2.451.014-1.732.246-3.287.587-4.644zm19.733-6.236c-1.43-.723-2.93-1.3-4.475-1.722C21.504.397 23.16.016 23.16.016c-2.859-.115-5.32.403-7.377 1.196-3.074-.247-5.032.288-5.032.288.461.347.85.965 1.245 1.709-2.595 1.776-3.914 3.63-3.914 3.63 1.563-.776 3.224-1.367 4.863-1.816.179.328.368.657.574.976a18.535 18.535 0 0 0 2.274 2.87c.426-2.027 1.157-3.602 1.999-4.826 3.655-.506 6.405-.417 6.405-.417zm13.095 8.823a13.67 13.67 0 0 0-3.896-5.075c-1.301-2.732-2.8-3.996-2.8-3.996.126.629.03 1.343-.203 2.078-3.24-1.609-6.196-1.83-6.196-1.83 1.885 1.233 3.554 2.763 4.99 4.34-1.321 2.152-3.061 3.969-3.061 3.969 2.304-.52 4.158-.74 5.645-.777 2.273 3.137 3.5 5.77 3.5 5.77.046-2.12-.165-3.97-.52-5.567 1.927.37 2.54 1.088 2.54 1.088h.001zm.996 7.87c-.566.887-1.431 1.517-2.443 1.963-.137-2.841-.573-5.355-.573-5.355a64.763 64.763 0 0 1-2.663 6.19c-3.047.392-6.04-.055-6.04-.055 1.643 1.965 2.916 3.133 3.946 3.923-1.54 2.599-2.659 3.989-2.659 3.989 2.155-.494 3.87-1.313 5.233-2.285.56.385 1.037.812 1.512 1.535 0 0 .88-1.247 1.183-4.137 2.18-2.85 2.504-5.767 2.504-5.767v-.001zm-18.973 1.053a91.102 91.102 0 0 0-3.324 5.449s-.812-2.79-1.114-6.803c-1.87-.631-3.8-1.36-5.66-2.198 0 0 2.15-1.09 5.588-2.422.096-2.088.387-4.31.988-6.53 0 0 1.13 2.082 3.187 5.037a74.725 74.725 0 0 1 7.146-1.97s-1.9 2.36-4.314 5.774a63.933 63.933 0 0 0 4.758 5.353s-3.097-.541-7.255-1.69z"/>
    </g>
</svg>
