<svg xmlns="http://www.w3.org/2000/svg" fill-rule="evenodd" stroke-linejoin="round" stroke-miterlimit="2"
  clip-rule="evenodd" viewBox="0 0 375 406" width="38" height="38">
  <g fill="#fff" class="color000 svgShape" fill-rule="nonzero">
    <path
      d="M224.896 203.659c7.908-93.806 46.981-177.689 50.065-184.862-14.447-7.414-30.261-11.449-35.703-12.865-20.314 93.934-14.977 182.901-14.362 197.727m-60.638 50.964c-6.346-39.679-19.149-86.097-19.149-86.097 16.817 102.848-10.887 184.752-10.887 184.752H239.94C190.903 173.177 228.3 10.739 229.739 3.854 221.594 2.026 204.808.213 193.81.06c-1.145 153.507 26.669 254.563 26.669 254.563h-11.312C184.55 154.577 182.097 28.669 182.86 0c-19.959.147-35.8 3.367-35.8 3.367l50.819 251.256h-11.23S138.872 18.409 136.282 5.601c-18.975 4.503-31.101 10.258-37.069 13.196 54.129 98.632 76.247 235.826 76.247 235.826h-11.202Zm-35.201 115.665-12.835 35.066h141.732l-12.811-35.066H129.057ZM287.402 60.095l-10.104 34.382c38.072 27.872 62.86 72.865 62.86 123.556 0 55.395-29.577 104.011-73.768 130.886l11.664 32.62c57.334-31.967 96.119-93.202 96.119-163.505 0-66.413-34.608-124.738-86.771-157.939M34.016 218.033c0-50.692 24.788-95.684 62.86-123.556L86.772 60.095C34.609 93.295 0 151.621 0 218.034c0 70.304 38.786 131.538 96.119 163.505l11.665-32.62c-44.191-26.875-73.768-75.491-73.768-130.886M350.75 389.902l-4.711 12.351-4.711-12.351h-2.893v15.454h2.718v-9.268l3.544 9.268h2.684l3.544-9.268v9.268h2.719v-15.454h-2.894Zm-26.355 2.448h4.752v13.006h2.682V392.35h4.753v-2.438h-12.187v2.438Z"
      class="color000 svgShape" />
  </g>
</svg>