<?xml version="1.0" encoding="UTF-8" standalone="no"?>
<svg width="444px" height="174px" viewBox="0 0 444 174" version="1.1" xmlns="http://www.w3.org/2000/svg" xmlns:xlink="http://www.w3.org/1999/xlink">
    <!-- Generator: Sketch 42 (36781) - http://www.bohemiancoding.com/sketch -->
    <title>SCUP – Wordmark</title>
    <desc>Created with Sketch.</desc>
    <defs>
        <polygon id="path-1" points="12.144 12.0934 12.144 0.7104 0.8176 0.7104 0.8176 12.0934 12.144 12.0934"></polygon>
        <polygon id="path-3" points="198.0236 0.52 0.2276 0.52 0.2276 88.6248 198.0236 88.6248 198.0236 0.52"></polygon>
    </defs>
    <g id="SCUP" stroke="none" stroke-width="1" fill="none" fill-rule="evenodd">
        <g id="SCUP-–-Wordmark" transform="translate(0.000000, -1.000000)">
            <path d="M29.8845,137.0839 C29.8845,137.0839 19.5675,132.3949 15.0375,129.1569 C13.3625,128.1339 12.2855,126.7609 12.6685,125.5779 C13.3055,123.6069 16.0105,123.0369 23.7615,123.0369 C25.9265,123.0369 43.6375,124.2509 43.6375,124.2509 L43.6375,113.8469 C43.6375,113.8469 29.2705,112.3019 23.7615,112.3019 C7.5495,112.3019 0.0005,116.8929 0.0005,126.7519 C0.0005,134.4369 5.7635,137.3949 13.7605,141.4979 L22.5305,145.9859 C30.6665,150.2019 32.2275,152.3619 32.4865,154.8919 C32.7055,157.0199 31.5395,162.2249 25.2065,163.3239 C19.8755,164.2509 0.6445,162.5309 0.6445,162.5309 L0.6445,172.9349 C0.6445,172.9349 15.2335,174.4799 20.4885,174.4799 C45.7985,174.4799 45.3725,157.6329 45.3725,154.5939 C45.3725,147.4749 41.1765,142.7269 29.8845,137.0839" id="Fill-1" fill="#FFFFFF"></path>
            <path d="M86.4783,121.8867 L86.4783,147.6507 C86.4783,152.2947 86.0633,155.7047 85.2523,157.7937 C84.4993,159.7017 83.2413,161.1317 81.4053,162.1767 C80.8923,162.4677 78.3593,163.7807 73.6383,163.7807 C68.9163,163.7807 66.3843,162.4677 65.8723,162.1767 C64.0363,161.1317 62.7783,159.7017 62.0253,157.7937 C61.2143,155.7047 60.7993,152.2947 60.7993,147.6507 L60.7993,121.8867 C60.7993,117.1587 56.6003,113.2417 51.4453,113.1587 L49.4773,113.1587 L49.4773,147.6937 C49.4773,153.9037 50.2503,158.9187 51.7803,162.5867 C53.3773,166.4347 56.0893,169.4167 59.8363,171.4487 C62.6633,172.9827 66.2013,173.9327 70.3423,174.2607 C71.3483,174.3537 73.5733,174.4047 73.6073,174.4047 L73.6383,174.4047 L73.6683,174.4047 C73.7053,174.4047 75.9293,174.3537 76.9353,174.2607 C81.0773,173.9327 84.6143,172.9827 87.4403,171.4487 C91.1883,169.4167 93.9003,166.4347 95.4983,162.5867 C97.0273,158.9187 97.8003,153.9037 97.8003,147.6937 L97.8003,113.1587 L95.8323,113.1587 C90.6773,113.2417 86.4783,117.1587 86.4783,121.8867" id="Fill-3" fill="#FFFFFF"></path>
            <path d="M143.6775,116.6816 C141.5755,115.2256 138.9765,114.2306 135.9595,113.7226 C133.8825,113.3466 130.8775,113.1596 127.0335,113.1596 L114.4915,113.1596 L114.4915,113.1696 L111.9855,113.1596 C103.6225,113.1596 103.6405,119.9156 103.6405,123.4016 L103.6405,173.4936 L114.9625,173.4936 L114.9775,123.6786 L115.5105,123.6806 L127.6475,123.6806 C131.6485,123.6806 133.3685,123.9186 134.0995,124.1116 C135.6025,124.5266 136.8335,125.3976 137.7575,126.7046 C138.7175,128.0546 139.1855,129.6706 139.1855,131.6416 C139.1855,134.3396 138.4055,136.3486 136.7925,137.7786 C135.1375,139.2436 131.1765,139.9856 125.7405,139.9856 C120.7685,139.9856 117.6985,144.1606 117.2305,148.2856 L116.9845,150.4376 L127.6865,150.5036 C136.1975,150.5036 142.2405,148.6226 145.6565,144.9036 C149.0305,141.2276 150.7425,136.6876 150.7425,131.4126 C150.7425,128.3216 150.1025,125.4426 148.8415,122.8606 C147.5605,120.2456 145.8245,118.1646 143.6775,116.6816" id="Fill-5" fill="#FFFFFF"></path>
            <path d="M166.3904,123.6806 L196.1054,123.6806 L196.1054,113.1596 L165.2574,113.1596 L165.2574,113.1676 L163.3944,113.1596 C155.0324,113.1596 155.0484,119.9156 155.0484,123.4016 L155.0484,163.2516 C155.0484,166.7376 155.0324,173.4936 163.3944,173.4936 L166.3904,173.4806 L166.3904,173.4926 L196.1354,173.4506 L196.1354,162.9296 L166.3904,162.9296 L166.3904,147.1216 L196.1354,147.1216 L196.1354,136.6416 L166.3904,136.6416 L166.3904,123.6806 Z" id="Fill-7" fill="#FFFFFF"></path>
            <path d="M247.2209,162.9296 C242.8739,162.3226 231.6919,159.6666 227.9469,150.4486 C235.4349,150.1766 240.8419,148.3316 243.9899,144.9036 C247.3649,141.2276 249.0769,136.6876 249.0769,131.4126 C249.0769,128.3216 248.4359,125.4426 247.1759,122.8606 C245.8949,120.2456 244.1579,118.1646 242.0129,116.6816 C239.9089,115.2256 237.3109,114.2306 234.2939,113.7226 C232.2169,113.3466 229.2119,113.1586 225.3679,113.1586 L212.8269,113.1586 L212.8269,113.1696 L210.3229,113.1586 C201.9589,113.1586 201.9769,119.9156 201.9769,123.4016 L201.9769,173.4926 L213.2989,173.4926 L213.3109,123.6786 L213.8459,123.6806 L225.9809,123.6806 C229.9829,123.6806 231.7029,123.9186 232.4329,124.1116 C233.9369,124.5266 235.1679,125.3976 236.0919,126.7046 C237.0529,128.0546 237.5209,129.6706 237.5209,131.6416 C237.5209,134.3396 236.7159,136.3196 235.1269,137.7786 C231.7149,140.9106 215.3929,140.3196 215.3929,140.3196 C213.8249,152.4766 222.7959,173.4926 251.3439,173.4926 L257.6069,173.4926 L258.0139,172.2006 C258.0139,172.2006 251.6959,169.9316 247.2209,162.9296" id="Fill-9" fill="#FFFFFF"></path>
            <path d="M271.9294,122.0351 C266.6414,128.0251 263.9564,135.4491 263.9564,144.1051 C263.9564,149.1551 264.9574,153.8411 266.9244,158.0401 C268.8864,162.2051 271.5184,165.4931 274.7484,167.8131 C277.9884,170.1531 282.0754,171.7651 286.8784,172.6021 C290.3494,173.2601 295.4684,173.4931 302.1024,173.4931 L314.0074,173.4931 L314.0074,162.9851 L301.0064,162.9851 C294.8034,162.9851 290.6574,162.6751 288.3334,162.0361 C284.6584,160.9801 281.6664,158.7791 279.4324,155.4941 C277.1704,152.1801 276.0714,148.3131 276.0714,143.6761 C276.0714,137.2881 277.9474,132.4491 281.8064,128.8841 C285.4314,125.5501 291.4614,124.5181 299.6384,124.3851 L299.6974,124.3851 L299.6974,124.3871 L305.2834,124.3871 C310.0094,124.3871 313.9254,120.1841 314.0074,115.0281 L314.0074,113.0951 L299.6974,113.0951 C286.2974,113.0951 277.0314,116.2611 271.9294,122.0351" id="Fill-11" fill="#FFFFFF"></path>
            <path d="M356.8464,121.8867 L356.8464,147.6507 C356.8464,152.2947 356.4324,155.7047 355.6204,157.7937 C354.8674,159.7017 353.6094,161.1317 351.7744,162.1767 C351.2604,162.4677 348.7284,163.7807 344.0074,163.7807 C339.2854,163.7807 336.7524,162.4677 336.2414,162.1767 C334.4044,161.1317 333.1474,159.7017 332.3944,157.7937 C331.5824,155.7047 331.1664,152.2947 331.1664,147.6507 L331.1664,121.8867 C331.1664,117.1587 326.9684,113.2417 321.8144,113.1587 L319.8454,113.1587 L319.8454,147.6937 C319.8454,153.9037 320.6184,158.9187 322.1484,162.5867 C323.7454,166.4347 326.4564,169.4167 330.2044,171.4487 C333.0314,172.9827 336.5694,173.9327 340.7104,174.2607 C341.7164,174.3537 343.9414,174.4047 343.9764,174.4047 L344.0074,174.4047 L344.0374,174.4047 C344.0744,174.4047 346.2974,174.3537 347.3024,174.2607 C351.4464,173.9327 354.9834,172.9827 357.8094,171.4487 C361.5574,169.4167 364.2704,166.4347 365.8664,162.5867 C367.3954,158.9187 368.1684,153.9037 368.1684,147.6937 L368.1684,113.1587 L366.2004,113.1587 C361.0444,113.2417 356.8464,117.1587 356.8464,121.8867" id="Fill-13" fill="#FFFFFF"></path>
            <path d="M419.2107,122.8603 C417.9297,120.2463 416.1927,118.1653 414.0457,116.6813 C411.9437,115.2253 409.3457,114.2303 406.3277,113.7223 C404.2507,113.3463 401.2457,113.1593 397.4017,113.1593 L384.8607,113.1593 L384.8607,113.1703 L382.3537,113.1593 C373.9907,113.1593 374.0087,119.9163 374.0087,123.4013 L374.0087,173.4933 L385.3307,173.4933 L385.3457,123.6783 L385.8787,123.6803 L398.0147,123.6803 C402.0177,123.6803 403.7377,123.9193 404.4687,124.1113 C405.9717,124.5263 407.2017,125.3973 408.1257,126.7053 C409.0857,128.0543 409.5547,129.6713 409.5547,131.6413 C409.5547,134.3393 408.7737,136.3483 407.1607,137.7783 C405.5067,139.2443 401.5457,139.9853 396.1077,139.9853 C391.1367,139.9853 388.0657,144.1603 387.5987,148.2863 L387.3527,150.4373 L398.0547,150.5043 C406.5647,150.5043 412.6087,148.6233 416.0237,144.9033 C419.3987,141.2273 421.1117,136.6873 421.1117,131.4133 C421.1117,128.3213 420.4707,125.4423 419.2107,122.8603" id="Fill-15" fill="#FFFFFF"></path>
            <polygon id="Fill-17" fill="#FFFFFF" points="421.4314 114.4677 421.4314 113.1907 430.5284 113.1907 430.5284 114.4677 426.7404 114.4677 426.7404 124.5727 425.2204 124.5727 425.2204 114.4677"></polygon>
            <g id="Group-21" transform="translate(431.000000, 112.480000)">
                <mask id="mask-2" fill="white">
                    <use xlink:href="#path-1"></use>
                </mask>
                <g id="Clip-20"></g>
                <polygon id="Fill-19" fill="#FFFFFF" mask="url(#mask-2)" points="2.8826 0.7104 6.4736 10.2754 10.0746 0.7104 12.1446 0.7104 12.1446 12.0934 10.7116 12.0934 10.7116 2.6224 10.6826 2.6224 7.1276 12.0934 5.8326 12.0934 2.2826 2.6224 2.2466 2.6224 2.2466 12.0934 0.8176 12.0934 0.8176 0.7104"></polygon>
            </g>
            <g id="Group-24" transform="translate(111.000000, 0.480000)">
                <mask id="mask-4" fill="white">
                    <use xlink:href="#path-3"></use>
                </mask>
                <g id="Clip-23"></g>
                <path d="M4.0696,45.9418 L0.2276,42.1828 C25.3326,16.4658 60.3686,0.5198 99.1316,0.5198 C137.8986,0.5198 172.9286,16.4658 198.0236,42.1828 L194.1916,45.9418 C170.0596,21.2388 136.3856,5.8908 99.1316,5.8908 C61.8706,5.8908 28.1906,21.2388 4.0696,45.9418 L4.0696,45.9418 Z M41.8586,88.6248 L37.8216,85.0668 C52.7676,68.0278 74.6866,57.2638 99.1316,57.2638 C123.5686,57.2638 145.4876,68.0278 160.4296,85.0668 L156.3866,88.6248 C142.4236,72.7098 121.9556,62.6538 99.1316,62.6538 C76.2996,62.6538 55.8206,72.7098 41.8586,88.6248 L41.8586,88.6248 Z M175.2366,39.7018 C176.8256,40.9218 176.7096,42.1628 176.3196,43.4038 L166.3396,78.0378 L160.6846,72.8448 L162.6186,66.1778 L155.9646,61.0518 L161.7186,57.3308 L164.5276,59.4948 L167.9746,47.6268 L146.2216,61.7418 L139.8436,58.1728 L170.0146,38.5588 C171.1106,37.8668 172.2826,37.4278 173.8856,38.6618 L175.2366,39.7018 Z M35.7526,64.5478 C33.2956,64.2518 31.7606,63.2298 29.4136,60.3398 L17.4026,45.5738 L12.0876,49.9008 L25.2046,66.0448 C27.9516,69.4208 31.0656,71.2158 34.7236,71.5768 C38.8446,71.9378 42.5256,70.7038 46.1566,67.7638 C49.7816,64.8038 51.7336,61.4778 52.2006,57.3528 C52.6236,53.7038 51.4946,50.2958 48.7646,46.8918 L35.6366,30.7678 L30.3096,35.0778 L42.3026,49.8458 C44.6666,52.7438 45.3556,54.4548 45.1166,56.9298 C44.9386,58.9518 43.7046,60.9798 41.8586,62.4908 C40.0116,63.9868 37.7716,64.7708 35.7526,64.5478 L35.7526,64.5478 Z M87.4866,20.8128 L86.2026,14.4628 L64.9896,18.7808 C63.5216,19.0808 62.6546,20.2268 62.9706,21.8338 L67.4136,43.6398 C68.9156,51.0788 74.3196,52.7768 80.3026,51.5438 L93.1976,48.9358 L91.9136,42.5868 L79.3916,45.1228 C76.1546,45.7908 74.7206,45.1648 73.9916,41.5538 L73.3196,38.2888 L88.8886,35.1148 L87.6206,28.8648 L72.0516,32.0418 L70.4726,24.2718 L87.4866,20.8128 Z M120.3326,37.1998 L135.7126,41.2428 L137.3306,35.0778 L121.9556,31.0298 L122.8016,27.8108 C123.7306,24.2448 125.2036,23.7088 128.4016,24.5368 L140.7556,27.7948 L142.3966,21.5278 L129.6566,18.1898 C123.7576,16.6408 118.2866,18.0348 116.3506,25.3488 L110.7186,46.8918 C110.2906,48.4798 111.1026,49.6648 112.5486,50.0518 L116.7126,51.1338 L120.3326,37.1998 Z" id="Fill-22" fill="#FFFFFF" mask="url(#mask-4)"></path>
            </g>
        </g>
    </g>
</svg>