<svg xmlns="http://www.w3.org/2000/svg" width="22" height="40" viewBox="0 0 22 40">
    <g fill="none" fill-rule="evenodd">
        <path d="M-8.437 0h40v40h-40z"/>
        <path fill="#FFF" fill-rule="nonzero" d="M16.452 22.69c-.545.82-1.16 1.673-1.857 2.56 0 0 7.037-10.303 3.354-15.735 0 0-.029-.855-.18-1.853 3.112 3.971 1.528 9.747-1.317 15.028zm2.283-4.103c3.59-8.147-.613-12.104-1.295-12.674.074.33.132.649.187.95.038.175.072.352.102.527 3.306 3.968 1.7 9.648-.466 14.021.106-.177.26-.417.26-.417 6.801-10.7-.381-16.221-.381-16.221.085.214.161.59.23.837.75.716 5.284 4.98 1.363 12.977zM4.209 7.662c-.15.998-.18 1.853-.18 1.853-3.682 5.432 3.354 15.734 3.354 15.734a39.828 39.828 0 0 1-1.857-2.56C2.682 17.41 1.098 11.634 4.21 7.663l-.001-.001zm.507 13.75C2.549 17.037.944 11.357 4.249 7.39c.03-.175.065-.352.103-.527.055-.301.112-.62.187-.95-.682.57-4.886 4.527-1.295 12.674-3.92-7.996.612-12.26 1.362-12.977.07-.246.146-.623.231-.837 0 0-7.182 5.52-.38 16.22 0 0 .153.24.259.418v.001zm6.24 2.93c-1.386-.022-2.815-1.934-3.39-3.957.82 2.137 2.012 3.464 3.399 3.465 1.387-.001 2.578-1.328 3.399-3.465-.576 2.023-2.004 3.935-3.39 3.956h-.019l.001.001zm8.259 11.627c.918.676 1.351 1.212 2.007 2.457-1.481-2.38-4.692-3.428-6.656-3.862 1.487.101 2.743.374 4.649 1.405zm-7.701-3.68c.946-.2 2.876-.942-.207-3.493.827.836 1.204 1.593 1.116 2.261-.082.627-.548 1.018-.91 1.232h.001zm-2.409.994c-.477.112-2.277.676-4.438 3.132-.827.394-1.545.832-2.155 1.263 1.762-2.348 4.467-3.819 6.182-4.353l.366-.095.045.053zM4.97 36.278c2.184-2.387 3.964-2.825 4.24-2.88.404.416.99.765 1.677 1.059-1.044.462-2.244.671-3.456.969-.902.222-1.72.519-2.461.852zm7.766-3.174c-.557-.182-1.035-.383-1.398-.645.54-.086 1.78-.39 1.78-1.365 0-.032-.005-.065-.008-.098.314.82.132 1.518-.374 2.108zm-4.37-7.329C6.14 23.398 4.575 18.057 4.575 11.85c0-4.735.906-9.007 2.326-11.802l1.392.006C6.978 2.428 6.098 6.408 6.098 10.85c0 3.663.523 6.975 1.404 9.356l-.266-.41c.822 2.992 2.319 4.668 3.729 4.679 1.41-.01 2.907-1.687 3.729-4.678l-.266.409c.88-2.381 1.404-5.693 1.404-9.356 0-4.442-.88-8.422-2.194-10.797l1.391-.006c1.42 2.795 2.327 7.067 2.327 11.802 0 6.208-1.567 11.549-3.793 13.926C16.4 22.48 16.58 14.213 16.58 14.213c-.813 11.844-4.84 12.869-5.614 12.869h-.002c-.775 0-4.802-1.025-5.614-12.87 0 0 .18 8.268 3.017 11.563h-.001zm-.262 7.7c-2.559.664-5.201 1.562-8.104 6.49 0 0 .734-.962 2.169-2.038 1.9-2.795 4.486-3.98 5.935-4.452zm13.26 5.264c.231.44.3.61.48 1.14 0 0-2.516-3.478-7.257-4.441-3.992-.81-8.65-2.385-3.816-6.577-.736-1.002-1.728-1.684-1.728-1.684.832.55 1.468 1.047 1.948 1.497a22.52 22.52 0 0 1 1.826-1.357c-.69.47-1.268.957-1.738 1.44l.04.04a7.82 7.82 0 0 1 .561-.563c-.179.177-.36.377-.53.594l.009.008.084.086c2.16 2.207.424 3.176-.081 3.396a.973.973 0 0 1-.058-.052c.736-1.08.455-2.175-.105-3.071a3.902 3.902 0 0 0-.053-.083c-.523.782-.822 1.752-.294 2.775.917 1.773 5.156 1.378 8.333 3.848-3.007-1.7-6.126-1.242-8.527-2.69-1.48-.89-.64-2.702.444-4l-.04-.056c-.894.99-1.334 1.952-1.334 2.693 0 .063.003.126.009.188.052.547.339.981.852 1.29 1.182.713 3.105 1.06 4.522 1.331.086.016-1.24-.06-1.153-.043l.783.2c1.82.402 5.262 1.548 6.738 3.92l.086.171h-.001z"/>
    </g>
</svg>
