<?xml version="1.0" encoding="UTF-8"?>
<svg xmlns="http://www.w3.org/2000/svg" xmlns:xlink="http://www.w3.org/1999/xlink" width="109px" height="38px" viewBox="0 0 108 38" version="1.1">
<g id="surface1">
<path style=" stroke:none;fill-rule:nonzero;fill:rgb(100%,100%,100%);fill-opacity:1;" d="M 47.917969 3.367188 L 43.332031 4.304688 C 43.121094 4.347656 42.957031 4.453125 42.851562 4.609375 C 42.75 4.769531 42.714844 4.960938 42.757812 5.171875 L 43.671875 9.710938 C 43.820312 10.449219 44.148438 10.980469 44.648438 11.289062 C 44.980469 11.496094 45.375 11.597656 45.832031 11.597656 C 46.0625 11.597656 46.3125 11.570312 46.574219 11.515625 L 49.441406 10.929688 L 49.097656 9.21875 L 46.308594 9.789062 C 45.738281 9.90625 45.550781 9.839844 45.421875 9.195312 L 45.324219 8.707031 L 48.550781 8.046875 L 48.210938 6.355469 L 44.980469 7.015625 L 44.738281 5.800781 L 48.261719 5.078125 Z M 38.230469 13.613281 C 37.878906 13.902344 37.46875 14.042969 37.109375 14 C 36.648438 13.945312 36.371094 13.757812 35.914062 13.191406 L 33.289062 9.9375 L 31.871094 11.097656 L 34.734375 14.640625 C 35.339844 15.390625 36.035156 15.792969 36.851562 15.867188 C 36.949219 15.878906 37.042969 15.882812 37.136719 15.882812 C 37.929688 15.890625 38.664062 15.609375 39.378906 15.027344 C 40.171875 14.375 40.609375 13.617188 40.710938 12.710938 C 40.804688 11.890625 40.554688 11.125 39.949219 10.371094 L 37.085938 6.828125 L 35.671875 7.988281 L 38.296875 11.242188 C 38.753906 11.804688 38.882812 12.121094 38.839844 12.582031 C 38.808594 12.949219 38.585938 13.324219 38.230469 13.613281 Z M 63 20.003906 L 63.941406 18.835938 C 60.976562 15.265625 56.117188 12.855469 50.761719 12.855469 C 45.402344 12.855469 40.542969 15.265625 37.582031 18.835938 L 38.519531 20.003906 C 41.210938 16.632812 45.792969 14.3125 50.761719 14.3125 C 55.730469 14.3125 60.308594 16.632812 63 20.003906 Z M 54.210938 5.777344 L 53.054688 10.265625 C 53 10.472656 53.023438 10.667969 53.117188 10.832031 C 53.210938 10.992188 53.371094 11.109375 53.578125 11.160156 L 54.628906 11.433594 L 55.371094 8.535156 L 58.554688 9.363281 L 58.984375 7.695312 L 55.800781 6.863281 L 55.925781 6.382812 C 56.089844 5.75 56.277344 5.695312 56.839844 5.84375 L 59.589844 6.558594 L 60.023438 4.871094 L 57.195312 4.132812 C 55.648438 3.730469 54.585938 4.3125 54.210938 5.777344 Z M 72.074219 8.734375 C 71.59375 8.246094 71.09375 7.777344 70.570312 7.320312 C 65.136719 2.601562 58.105469 0 50.761719 0 C 43.417969 0 36.382812 2.601562 30.953125 7.320312 C 30.429688 7.777344 29.925781 8.246094 29.445312 8.734375 L 30.414062 9.941406 C 30.90625 9.441406 31.417969 8.957031 31.953125 8.492188 C 37.105469 4.011719 43.785156 1.542969 50.761719 1.542969 C 57.734375 1.542969 64.414062 4.011719 69.566406 8.492188 C 70.101562 8.957031 70.617188 9.441406 71.105469 9.941406 Z M 63.695312 15.929688 L 64.011719 14.835938 L 62.65625 13.816406 L 63.746094 13.03125 L 64.378906 13.507812 L 65.097656 11.070312 L 60.933594 13.78125 L 59.226562 12.808594 L 65.757812 8.554688 C 66.007812 8.390625 66.351562 8.246094 66.789062 8.582031 L 67.066406 8.800781 C 67.507812 9.140625 67.445312 9.53125 67.359375 9.796875 L 65.191406 17.308594 Z M 106.816406 24.355469 L 107.578125 23.0625 L 107.863281 23.0625 L 107.863281 25.53125 L 107.589844 25.53125 L 107.589844 23.566406 L 107.582031 23.566406 L 106.941406 24.652344 L 106.6875 24.652344 L 106.042969 23.566406 L 106.035156 23.566406 L 106.035156 25.53125 L 105.761719 25.53125 L 105.761719 23.0625 L 106.046875 23.0625 L 106.8125 24.355469 Z M 104.578125 25.53125 L 104.300781 25.53125 L 104.300781 23.300781 L 103.546875 23.300781 L 103.546875 23.0625 L 105.328125 23.0625 L 105.328125 23.300781 L 104.578125 23.300781 Z M 85.875 35.496094 C 85.875 35.496094 87.402344 34.09375 87.910156 33.625 C 90.296875 31.433594 91.660156 29.429688 91.660156 27.320312 C 91.660156 24.71875 89.707031 22.847656 86.699219 22.847656 C 83.648438 22.847656 81.699219 24.738281 81.757812 27.6875 L 84.242188 27.828125 C 84.164062 26.261719 85.042969 25.125 86.578125 25.125 C 88.050781 25.125 89.015625 26.058594 88.976562 27.523438 C 88.933594 28.949219 87.875 30.398438 86.171875 32 C 85.082031 33.027344 81.839844 35.820312 81.839844 35.820312 L 81.839844 37.796875 L 91.785156 37.796875 L 91.785156 35.496094 Z M 63.773438 35.496094 C 63.773438 35.496094 65.300781 34.09375 65.808594 33.625 C 68.195312 31.433594 69.558594 29.429688 69.558594 27.320312 C 69.558594 24.71875 67.605469 22.847656 64.597656 22.847656 C 61.546875 22.847656 59.597656 24.738281 59.65625 27.6875 L 62.140625 27.828125 C 62.0625 26.261719 62.941406 25.125 64.476562 25.125 C 65.949219 25.125 66.914062 26.058594 66.875 27.523438 C 66.832031 28.949219 65.773438 30.398438 64.070312 32 C 62.980469 33.027344 59.738281 35.820312 59.738281 35.820312 L 59.738281 37.796875 L 69.683594 37.796875 L 69.683594 35.496094 Z M 101.519531 32 L 101.519531 23.050781 L 98.066406 23.050781 L 91.894531 32.34375 L 91.894531 34.277344 L 97.175781 34.277344 L 97.527344 32 L 94.761719 32 L 98.949219 25.539062 L 98.953125 25.53125 L 98.953125 25.535156 L 98.957031 25.53125 L 98.957031 32 L 98.953125 32 L 98.957031 34.277344 L 98.957031 37.796875 L 101.519531 37.796875 L 101.519531 34.277344 L 103.519531 34.277344 L 103.519531 32 Z M 54.652344 30.304688 C 54.652344 32.679688 53.449219 34.308594 51.539062 34.652344 L 52.042969 37.917969 C 55.988281 37.40625 58.527344 34.488281 58.527344 30.304688 C 58.527344 25.703125 55.433594 22.628906 50.761719 22.628906 C 46.089844 22.628906 42.996094 25.703125 42.996094 30.304688 C 42.996094 34.488281 45.53125 37.40625 49.480469 37.917969 L 49.980469 34.652344 C 48.070312 34.308594 46.867188 32.679688 46.867188 30.304688 C 46.867188 27.664062 48.40625 25.890625 50.761719 25.890625 C 53.117188 25.890625 54.652344 27.664062 54.652344 30.304688 Z M 41.183594 27.871094 C 41.183594 25.105469 39.265625 23.050781 35.652344 23.050781 L 28.582031 23.050781 L 28.582031 37.796875 L 32.21875 37.796875 L 32.21875 26.324219 L 35.308594 26.324219 C 36.539062 26.324219 37.367188 26.933594 37.367188 28.15625 C 37.367188 29.292969 36.679688 30.546875 35.308594 30.546875 L 33.636719 30.546875 L 36.398438 37.796875 L 40.292969 37.796875 L 37.621094 32.949219 C 39.863281 32.480469 41.183594 30.25 41.183594 27.871094 Z M 0 37.796875 L 10.542969 37.796875 L 10.542969 34.644531 L 3.636719 34.644531 L 3.636719 31.9375 L 9.9375 31.9375 L 9.9375 28.96875 L 3.636719 28.96875 L 3.636719 26.222656 L 10.542969 26.222656 L 10.542969 23.050781 L 0 23.050781 Z M 78.433594 30.417969 C 78.433594 26.808594 77.527344 25.148438 75.789062 25.148438 C 73.929688 25.148438 73.121094 27.058594 73.121094 30.355469 C 73.121094 34.003906 74.03125 35.664062 75.789062 35.664062 C 77.625 35.664062 78.433594 33.757812 78.433594 30.417969 Z M 81.121094 30.417969 C 81.121094 35.457031 79.082031 37.988281 75.789062 37.988281 C 72.214844 37.988281 70.414062 35.148438 70.414062 30.355469 C 70.414062 25.355469 72.414062 22.847656 75.789062 22.847656 C 79.261719 22.847656 81.121094 25.648438 81.121094 30.417969 Z M 13.394531 23.050781 L 17.027344 23.050781 L 17.027344 32.222656 C 17.027344 33.851562 18.058594 34.726562 19.574219 34.726562 C 21.25 34.726562 22.121094 33.726562 22.121094 32.222656 L 22.121094 23.050781 L 25.734375 23.050781 L 25.734375 32.367188 C 25.734375 35.78125 23.492188 38 19.574219 38 C 15.835938 38 13.394531 35.925781 13.394531 32.367188 Z M 13.394531 23.050781 "/>
</g>
</svg>
