<svg viewBox="0 0 168 168" width="38" height="38" fill="none" xmlns="http://www.w3.org/2000/svg">

  <path
    d="M53.0439 75.6993C53.0439 97.5507 60.7179 117.321 70.2128 128.312C70.9932 126.686 71.7736 124.8 72.2939 123.499C70.4079 116.215 69.8877 108.281 71.1883 100.347C75.3505 75.049 94.8606 56.4493 119.899 51.5068L114.371 45.6537C94.8606 51.962 79.4476 65.0338 72.424 82.723L71.0583 79.2762C76.0659 64.8387 83.3497 55.2137 86.6013 51.3767C82.9595 47.6047 80.7483 42.5321 80.7483 36.9392C80.7483 29.5253 84.6503 23.022 90.5034 19.315C89.2027 21.7213 88.4873 24.4527 88.4873 27.3792C88.4873 36.8742 96.1613 44.5481 105.656 44.5481C115.151 44.5481 122.825 36.8742 122.825 27.3792C122.825 18.0794 115.411 10.4704 106.111 10.2103L109.493 0L109.298 0.0650338C76.5861 9.8201 53.0439 40.516 53.0439 75.6993ZM154.171 149.448H153.846C153.521 149.448 153.391 149.513 153.196 149.903C153.066 150.228 151.765 153.48 151.57 153.87C151.505 154 150.92 155.431 150.92 155.561H150.855C150.79 155.431 150.204 153.935 150.204 153.805L148.644 149.838C148.514 149.448 148.318 149.383 147.993 149.383H147.668C147.213 149.383 147.083 149.578 147.083 149.968V157.252C147.083 157.382 147.148 157.447 147.278 157.447H147.863C147.993 157.447 148.058 157.382 148.058 157.252V151.334H148.123L148.709 152.829C148.839 153.155 149.879 155.691 150.074 156.016C150.204 156.341 150.334 156.471 150.66 156.471H151.05C151.375 156.471 151.505 156.341 151.635 156.016C151.765 155.691 152.806 153.155 152.936 152.829C153.001 152.764 153.521 151.334 153.586 151.269H153.651V157.252C153.651 157.382 153.716 157.447 153.846 157.447H154.432C154.562 157.447 154.627 157.382 154.627 157.252V149.968C154.757 149.643 154.627 149.448 154.171 149.448ZM145.977 149.448H140.319C140.189 149.448 140.189 149.513 140.189 149.643V150.228C140.189 150.358 140.189 150.423 140.319 150.423H142.595V157.382C142.595 157.512 142.66 157.577 142.791 157.577H143.441C143.571 157.577 143.636 157.512 143.636 157.382V150.423H145.977C146.107 150.423 146.107 150.358 146.107 150.228V149.643C146.107 149.513 146.107 149.448 145.977 149.448ZM119.834 144.7C121.459 116.476 105.006 91.1123 83.4147 78.5608C81.3336 81.0321 79.1875 85.1292 78.4071 87.4704C79.5777 92.0228 80.163 96.7703 80.163 101.648C80.163 125.19 59.6774 146.651 56.5557 149.057C32.1681 138.522 15.0642 114.199 15.0642 85.8446C15.0642 53.2627 37.6959 25.9485 68.0667 18.7948C71.1883 15.2829 74.5701 12.0312 78.212 9.0397C38.4113 12.0312 7 45.2635 7 85.8446C7 128.377 41.4679 162.845 84 162.845C126.532 162.845 161 128.377 161 85.8446C161 60.2863 148.579 37.6546 129.394 23.6723C129.589 24.9079 129.719 26.1436 129.719 27.4443C129.719 29.5904 129.459 31.6064 128.938 33.5574C143.636 46.174 152.936 64.9037 152.936 85.8446C152.936 110.818 139.669 132.604 119.834 144.7ZM90.8285 154.455C88.5524 154.65 86.2762 154.78 84 154.78C81.7888 154.78 79.5777 154.65 77.3665 154.455C83.6748 148.992 96.6166 131.693 96.6166 114.459C96.6166 108.802 95.7061 103.339 94.0802 98.266L95.2508 97.1605C99.1529 104.704 101.299 113.224 101.299 122.329C101.299 127.011 101.104 139.432 90.8285 154.455Z"
    fill="white" />

</svg>